<svg xmlns="http://www.w3.org/2000/svg" ariaHidden="true" tabIndex="-1" viewBox="0 0 11 11"><path d="M7.333 4.274L4.851 6.463a.51.51 0 01-.342.127.51.51 0 01-.38-.162.457.457 0 01.037-.662l2.482-2.188a.518.518 0 01.342-.128c.086 0 .25.021.38.163a.459.459 0 01-.037.661zm.405-1a1.017 1.017 0 00-.748-.324c-.248 0-.487.09-.672.252L3.835 5.392a.96.96 0 00-.074 1.375c.19.207.463.324.748.324.249 0 .488-.09.672-.252L7.664 4.65a.96.96 0 00.074-1.376zm-.207 3.599l-1.15 1.013a2.83 2.83 0 01-1.872.704 2.828 2.828 0 01-1.89-.718l-.105-.095.434-.381.082.072c.407.358.933.555 1.48.555.546 0 1.072-.198 1.478-.556L7.141 6.45l.39.422zm2.964-2.772a3.375 3.375 0 01-1.154 2.372l-2.485 2.19a3.549 3.549 0 01-2.346.879 3.554 3.554 0 01-2.611-1.135 3.378 3.378 0 01.256-4.836L4.642 1.38A3.545 3.545 0 016.99.498 3.55 3.55 0 019.6 1.634c.625.679.943 1.555.895 2.467zM6.99 0C5.997 0 5.046.357 4.31 1.004L1.825 3.197a3.872 3.872 0 00-.294 5.549 4.052 4.052 0 002.98 1.295c.99 0 1.94-.356 2.675-1.002l2.485-2.19a3.876 3.876 0 00.298-5.552A4.055 4.055 0 006.989 0z" fill="#2E3134" fill-rule="evenodd"/></svg>
