<?xml version="1.0" encoding="UTF-8"?>
<svg width="11px" height="11px" viewBox="0 0 11 11" version="1.1" xmlns="http://www.w3.org/2000/svg" xmlns:xlink="http://www.w3.org/1999/xlink">
    <title>path-1</title>
    <defs>
        <path d="M7.33342739,4.2745 L4.85142739,6.4625 C4.75592739,6.5465 4.63742739,6.5905 4.50892739,6.5905 C4.42342739,6.5905 4.26042739,6.5695 4.12992739,6.4275 C4.04342739,6.334 3.99992739,6.2145 4.00642739,6.091 C4.01242739,5.9665 4.06892739,5.8505 4.16592739,5.7655 L6.64842739,3.5775 C6.74242739,3.495 6.86392739,3.45 6.99042739,3.45 C7.07592739,3.45 7.23942739,3.4715 7.36992739,3.613 C7.45592739,3.7065 7.49992739,3.826 7.49342739,3.949 C7.48592739,4.0765 7.42842739,4.191 7.33342739,4.2745 L7.33342739,4.2745 Z M7.73842739,3.2745 C7.54892739,3.0685 7.27642739,2.95 6.99042739,2.95 C6.74192739,2.95 6.50292739,3.0395 6.31842739,3.2025 L3.83492739,5.3905 C3.63692739,5.565 3.52042739,5.8045 3.50692739,6.0645 C3.49342739,6.3235 3.58342739,6.5725 3.76142739,6.7655 C3.95142739,6.9725 4.22392739,7.0905 4.50892739,7.0905 C4.75792739,7.0905 4.99692739,7.0005 5.18142739,6.838 L7.66392739,4.65 C7.86242739,4.475 7.97892739,4.2355 7.99242739,3.975 C8.00642739,3.7165 7.91592739,3.468 7.73842739,3.2745 L7.73842739,3.2745 Z M7.53142739,6.873 L6.38192739,7.8865 C5.86692739,8.34 5.20192739,8.59 4.50942739,8.59 C3.80792739,8.59 3.13642739,8.335 2.61892739,7.8715 L2.51392739,7.7775 L2.94792739,7.3955 L3.03042739,7.4685 C3.43742739,7.826 3.96292739,8.0225 4.50942739,8.0225 C5.05642739,8.0225 5.58192739,7.825 5.98842739,7.4665 L7.14142739,6.4505 L7.53142739,6.873 Z M10.4954274,4.1015 C10.4479274,5.0165 10.0374274,5.8585 9.34092739,6.4725 L6.85592739,8.6625 C6.21092739,9.2295 5.37792739,9.542 4.50992739,9.542 C3.51492739,9.542 2.56342739,9.1285 1.89892739,8.407 C1.27442739,7.7275 0.956927392,6.852 1.00442739,5.9405 C1.05192739,5.0265 1.46092739,4.185 2.15542739,3.571 L4.64192739,1.38 C5.28642739,0.8115 6.12042739,0.498 6.98992739,0.498 C7.98442739,0.498 8.93592739,0.912 9.59992739,1.634 C10.2249274,2.313 10.5434274,3.1895 10.4954274,4.1015 L10.4954274,4.1015 Z M6.98892739,0 C5.99692739,0 5.04592739,0.357 4.31092739,1.0045 L1.82542739,3.196 C1.02892739,3.8995 0.559927392,4.865 0.505427392,5.915 C0.450427392,6.9615 0.814927392,7.967 1.53142739,8.745 C2.28792739,9.568 3.37442739,10.04 4.51092739,10.04 C5.50092739,10.04 6.45142739,9.684 7.18642739,9.0375 L9.67142739,6.8475 C10.4694274,6.144 10.9394274,5.178 10.9949274,4.1275 C11.0499274,3.081 10.6854274,2.075 9.96892739,1.2955 C9.21092739,0.472 8.12492739,0 6.98892739,0 L6.98892739,0 Z" id="path-1"></path>
    </defs>
    <g id="Page-1" stroke="none" stroke-width="1" fill="none" fill-rule="evenodd">
        <mask id="mask-2" fill="white">
            <use xlink:href="#path-1"></use>
        </mask>
        <use id="path-1" fill="#2E3134" xlink:href="#path-1"></use>
    </g>
</svg>